<svg xmlns="http://www.w3.org/2000/svg" viewBox="0 0 24 24" role="img" aria-label="GitHub"><rect width="24" height="24" rx="6" fill="#111827"/><path fill="#fff" d="M12 4.5A7.5 7.5 0 0 0 9.6 19c.4 0 .6-.2.6-.5v-1.7c-2.3.5-2.8-1-2.8-1-.4-.9-.9-1.2-.9-1.2-.8-.5.1-.5.1-.5.8.1 1.3.9 1.3.9.8 1.2 2 1 2.4.8.1-.6.3-1 .6-1.3-1.9-.2-3.9-.9-3.9-4.2 0-.9.3-1.7.9-2.2-.1-.2-.4-1.1.1-2.2 0 0 .8-.3 2.4.9a8 8 0 0 1 4.4 0c1.6-1.2 2.4-.9 2.4-.9.5 1.1.2 2 .1 2.2.6.6.9 1.3.9 2.2 0 3.2-2 4-3.9 4.2.3.2.6.8.6 1.6v2.3c0 .3.2.5.6.5A7.5 7.5 0 0 0 12 4.5z"/></svg>